<svg xmlns="http://www.w3.org/2000/svg" viewBox="0 0 203.05 43.04"><defs><style>.cls-1{fill:#231f20;}.cls-2{fill:#fdb913;}.cls-3{fill:#ffd400;}.cls-4{fill:#f7941d;}.cls-5{fill:#d1d3d4;}.cls-6{fill:#d7df23;}.cls-7{fill:#7fb539;}.cls-8{fill:#494747;}</style></defs><g id="레이어_2" data-name="레이어 2"><g id="레이어_1-2" data-name="레이어 1"><path class="cls-1" d="M27.77,42.15l0,0,0,0Z"/><path class="cls-2" d="M42.33,13.37a28.78,28.78,0,0,0-7.08,1.1c-.68,6.54-2,19.14-2,19.34a1.55,1.55,0,0,1-.2.81l-5.13,7.54c.53-.61,2.48-2.12,9.16-3.45a.31.31,0,0,0,.18-.09.32.32,0,0,0,.1-.18l5.17-24.88S42.56,13.37,42.33,13.37Z"/><path class="cls-3" d="M35.7,10.55c0-.33-.24-.2-.24-.2-4.19,1.71-7.75,7.06-7.75,7.06h0a38.4,38.4,0,0,1,7.52-2.92c.24-2.3.38-3.52.44-3.92"/><path class="cls-4" d="M27.74,17.39l-.35,25.36a.06.06,0,0,0,.07.06c.06,0,.15-.26.42-.65L33,34.61a1.69,1.69,0,0,0,.2-.8c0-.2,1.32-12.78,2-19.34a37.92,37.92,0,0,0-7.52,2.92"/><path class="cls-5" d="M7.31,0s-.55-.09-.46.21L8.22,5.9a111.62,111.62,0,0,1,17,4.59S18,1.68,7.31,0Z"/><path class="cls-6" d="M14.47,31.86,8.22,5.9A42.14,42.14,0,0,0,.7,5.23s-.75,0-.7.56L8.71,37.52A.87.87,0,0,0,9,38a.92.92,0,0,0,.5.18s13.14,1.1,15.66,4.32C22.49,38,14.47,31.88,14.47,31.88"/><path class="cls-7" d="M25.28,10.49a111.62,111.62,0,0,0-17-4.59l6.23,26s8,6.09,10.7,10.58a2.13,2.13,0,0,1,.16.25,3,3,0,0,1,.16.31c.05.1,0,0,0,0S25.28,10.49,25.28,10.49Z"/><path class="cls-8" d="M76.26,27.12H74V20.9h1.48l.79-2.33H65.88V20.9h1.43v6.22H65.88v2.32h9.6Zm-6.9-6.22H72v6.22H69.36Z"/><path class="cls-8" d="M79.71,20.89h2.76l.79-2.32H77.4V29.44h2.31Z"/><path class="cls-8" d="M69.41,31.36h-2.1v5.57H79.67l.69-2.1h-11Z"/><path class="cls-8" d="M51.68,37.2H63.44V32H57.56V30.1h5.83l.8-2.07H49.27V30.1h5.88V32h-5.9v1.77H61v1.87H49.25v5.19H63.44L64.22,39H51.68Z"/><path class="cls-8" d="M58.6,17.9H54.84v1.42H49.22v2.33h5.47l-5.56,4.8h3.54l3.79-3,3.78,3h3.54l-5.57-4.8h5.26l.75-2.33H57.86Z"/><path class="cls-8" d="M141.49,19.32h-.2V29.44h2.3V21.62h2.69l.87-2.3h-5.66Z"/><path class="cls-8" d="M130.27,24.79a4.31,4.31,0,0,0,.49,2.05,4.43,4.43,0,0,0,1.42,1.56,4.32,4.32,0,0,0,2,.69,4.24,4.24,0,0,0,2.08-.35,4.4,4.4,0,0,0,1.66-1.3,4.33,4.33,0,0,0,.83-1.93,4.28,4.28,0,0,0-.2-2.1,4.33,4.33,0,0,0-1.17-1.75h1.91l.73-2.32h-4.4l.78-1.42h-3.08v1.42h-3.56v2.32h1.91a4.25,4.25,0,0,0-1,1.42A4.2,4.2,0,0,0,130.27,24.79Zm4.26,1.94a2,2,0,0,1-1.83-1.21,1.94,1.94,0,0,1-.11-1.14,1.92,1.92,0,0,1,.54-1,2.08,2.08,0,0,1,1-.54,2,2,0,0,1,1.14.12,2,2,0,0,1,.89.73,2,2,0,0,1,.33,1.1,2,2,0,0,1-2,2Z"/><path class="cls-8" d="M141.5,33.6h-8.92V31.39h-2.31V40.8h13.52V31.39h-2.3Zm-8.92,4.87V35.69h8.92v2.77Z"/><path class="cls-8" d="M106.49,28.12h4.4l.78-2.32h-10V24.62h9.21l.78-2.33h-10v-1.4h9.21l.78-2.32h-12v9.55h4.53v1.31H98.44v2.13H112l.77-2.13h-6.28Z"/><path class="cls-8" d="M105.31,32.28a5,5,0,0,0-3.46,1.25A4.07,4.07,0,0,0,100.78,35a4.11,4.11,0,0,0-.34,1.77,4.58,4.58,0,0,0,.34,1.86,4.64,4.64,0,0,0,1.06,1.57,4.44,4.44,0,0,0,1.54,1.05,4.59,4.59,0,0,0,1.83.35,4.85,4.85,0,0,0,3.47-1.34,4.31,4.31,0,0,0,1.08-1.52,5,5,0,0,0,0-3.62,4.38,4.38,0,0,0-1-1.5A4.79,4.79,0,0,0,105.31,32.28Zm1.74,6.24a2.48,2.48,0,0,1-1.74.7,2.64,2.64,0,0,1-1.83-.67,2.21,2.21,0,0,1-.56-.76,2.35,2.35,0,0,1-.18-.94,2.31,2.31,0,0,1,.18-1,2.44,2.44,0,0,1,.55-.8,2.46,2.46,0,0,1,.82-.53,2.39,2.39,0,0,1,.95-.17,2.58,2.58,0,0,1,1.83.69,2.41,2.41,0,0,1,.54.79,2.28,2.28,0,0,1,.19.93,2.36,2.36,0,0,1-.19.94,2.52,2.52,0,0,1-.54.79Z"/><path class="cls-8" d="M122.34,28.12h4.4l.78-2.32h-10V24.62h9.2l.78-2.33h-10v-1.4h9.2l.78-2.32h-12v9.55H120v1.31h-5.73v2.13h13.56l.77-2.13h-6.28Z"/><path class="cls-8" d="M121.17,32.28a5,5,0,0,0-3.46,1.25,4.07,4.07,0,0,0-1.41,3.22,4.71,4.71,0,0,0,4.76,4.84,4.76,4.76,0,0,0,1.87-.32,4.85,4.85,0,0,0,1.61-1,4.29,4.29,0,0,0,1.07-1.52,4.86,4.86,0,0,0,0-3.62,4.25,4.25,0,0,0-1-1.5A4.75,4.75,0,0,0,121.17,32.28Zm1.74,6.24a2.37,2.37,0,0,1-.82.53,2.54,2.54,0,0,1-1,.17,2.63,2.63,0,0,1-1.83-.67,2.21,2.21,0,0,1-.56-.76,2.17,2.17,0,0,1-.19-.94,2.31,2.31,0,0,1,.18-1,2.44,2.44,0,0,1,.55-.8,2.46,2.46,0,0,1,.82-.53,2.39,2.39,0,0,1,1-.17,2.57,2.57,0,0,1,1.83.69,2.08,2.08,0,0,1,.56.78,2.21,2.21,0,0,1,.19,1,2.19,2.19,0,0,1-.18.94,2.36,2.36,0,0,1-.55.78Z"/><path class="cls-8" d="M194.79,28.71V18.58H184.71V28.74h10.08ZM187,20.9h5.47v5.52H187Z"/><path class="cls-8" d="M194.87,31.62a5,5,0,0,0-3.46,1.27A4.09,4.09,0,0,0,190,36.1a4.72,4.72,0,0,0,.35,1.85,4.7,4.7,0,0,0,4.42,2.95,4.85,4.85,0,0,0,3.47-1.34A4.31,4.31,0,0,0,199.31,38a4.22,4.22,0,0,0,.35-1.82,4.27,4.27,0,0,0-.33-1.8,4.38,4.38,0,0,0-1.05-1.5A4.82,4.82,0,0,0,194.87,31.62Zm1.75,6.25a2.54,2.54,0,0,1-.82.52,2.46,2.46,0,0,1-1,.16,2.6,2.6,0,0,1-1.83-.66,2.25,2.25,0,0,1-.56-.77,2.13,2.13,0,0,1-.18-.94,2.39,2.39,0,0,1,.17-1,2.27,2.27,0,0,1,.56-.8,2.42,2.42,0,0,1,1.77-.7,2.59,2.59,0,0,1,1.82.68,2.25,2.25,0,0,1,.56.78,2.37,2.37,0,0,1,.19,1,2.19,2.19,0,0,1-.18.94A2.27,2.27,0,0,1,196.62,37.87Z"/><path class="cls-8" d="M199.46,18.57h-2.31V29.44h2.31V20.89h2.8l.79-2.32Z"/><path class="cls-8" d="M173.91,29.45h2.92l-4.24-8.25,1.46-2.62h-2.92l-6.07,10.87H168l3.08-5.52Z"/><path class="cls-8" d="M178.55,18.57h-.8V29.44h2.31V20.89h2.8l.79-2.32h-5.1Z"/><path class="cls-8" d="M170.25,31.4h-2.09V37h12.35l.69-2.1H170.25Z"/><path class="cls-8" d="M161.54,21.42h-2.47l-.75,2.34h3.22v5.68h2.31V18.57h-2.31Z"/><path class="cls-8" d="M152.89,31.4H150.8V37h12.35l.7-2.1h-11Z"/><path class="cls-8" d="M156.47,29.5h2.69l-4-8.59h3.52l.77-2.33H148.7v2.33H152l-4,8.59h2.69l2.87-5.73Z"/><path class="cls-8" d="M82.47,31.56H85.8v5.32h2.31V31.56h2.51v5.32h2.32V31.56H96l.77-2.13H82.47Z"/><path class="cls-8" d="M89.31,28.62a5.08,5.08,0,0,0,2.88-.84,5.15,5.15,0,1,0-7.1-7.17,5.12,5.12,0,0,0-.87,2.86,4.94,4.94,0,0,0,.38,2,5.16,5.16,0,0,0,1.1,1.67,5.28,5.28,0,0,0,1.66,1.12A5,5,0,0,0,89.31,28.62Zm0-7.95a2.75,2.75,0,0,1,1.57.46,2.8,2.8,0,0,1,.45,4.31,2.81,2.81,0,0,1-3,.62,2.82,2.82,0,0,1-1.74-2.59,2.78,2.78,0,0,1,2.77-2.76Z"/><path class="cls-8" d="M131.69,1.92h-5.52V.62h6Z"/><path class="cls-8" d="M151.37,10.81h-6.85V9.65h7.24Z"/><path class="cls-8" d="M145.69,7.73h-1.17v3.08h1.17Z"/><path class="cls-8" d="M133.73.62h-1.28v6h1.28Z"/><path class="cls-8" d="M106.52,6.65h1.62l3.36-6h-1.62Z"/><path class="cls-8" d="M113,6.65h-1.62l-2.31-4.5,1.49-.25Z"/><path class="cls-8" d="M114.83.62h-1.28v6h1.28Z"/><path class="cls-8" d="M116.38,1.91H114V.62h2.83Z"/><path class="cls-8" d="M115.08,10.81h-6.85V9.65h7.23Z"/><path class="cls-8" d="M109.4,7.73h-1.17v3.08h1.17Z"/><path class="cls-8" d="M134.18,10.81h-6.85V9.65h7.23Z"/><path class="cls-8" d="M128.49,7.73h-1.16v3.08h1.16Z"/><path class="cls-8" d="M106.6,2.31H104V1h3.14Z"/><path class="cls-8" d="M105.12,1h-1.28v9.73h1.28Z"/><path class="cls-8" d="M89.79.62H88.5V5h1.29Z"/><path class="cls-8" d="M96,.62H94.74V5H96Z"/><path class="cls-8" d="M96,.62H88.5V1.91H96Z"/><path class="cls-8" d="M96,3.68H88.5V5H96Z"/><path class="cls-8" d="M96,7.25H88.5V6h8Z"/><path class="cls-8" d="M92.9,6H91.61V9.41H92.9Z"/><path class="cls-8" d="M95.35,12.94H88.5V11.65h7.24Z"/><path class="cls-8" d="M89.67,7.72H88.5v5.22h1.17Z"/><path class="cls-8" d="M83.6,1.91H78.28V.62H84Z"/><path class="cls-8" d="M83.6,6.64H78.28V5.36H84Z"/><path class="cls-8" d="M80.21,1.32H79.08V5.48h1.13Z"/><path class="cls-8" d="M82.78,1.32H81.64V5.48h1.14Z"/><path class="cls-8" d="M85.94.62H84.66v6h1.28Z"/><path class="cls-8" d="M87.48,1.91h-2.4V.62h2.83Z"/><path class="cls-8" d="M85.92,10.8H79.07V9.63H86.3Z"/><path class="cls-8" d="M80.23,7.72H79.07V10.8h1.16Z"/><path class="cls-8" d="M76.9,7H69.07V5.86h8.27Z"/><path class="cls-8" d="M73.67,5.91H72.33V8.65h1.34Z"/><path class="cls-8" d="M76.92,8.07H69.06v1h7.86Z"/><path class="cls-8" d="M76.92,13H69.06V12h8.29Z"/><path class="cls-8" d="M76.92,10.09H69.06v.85h7.86Z"/><path class="cls-8" d="M76.92,8.42H75.57v2.41h1.35Z"/><path class="cls-8" d="M70.4,10.33H69.06v2.41H70.4Z"/><path class="cls-8" d="M76.94,2.33H69V1h8.31Z"/><path class="cls-8" d="M73.56,1.54H72.15V.25h2.09Z"/><path class="cls-8" d="M69,5h2l2.13-1.7V1.46Z"/><path class="cls-8" d="M77.11,5h-2L73,3.29V1.46Z"/><path class="cls-8" d="M67.37,9.65H60.31V8.35h7.46Z"/><path class="cls-8" d="M67.77,8.36H66.5V13h1.27Z"/><path class="cls-8" d="M67.77.62H60.25v1.3h7.52Z"/><path class="cls-8" d="M67.77,1.18h-1.3V5h1.3Z"/><path class="cls-8" d="M56.58,10.8H49.73V9.64H57Z"/><path class="cls-8" d="M67.77,7.25H60.25V6h7.94Z"/><path class="cls-8" d="M50.9,7.72H49.73V10.8H50.9Z"/><path class="cls-8" d="M59,2.43H56.31V1.16h3.13Z"/><path class="cls-8" d="M57.47,1.16H56.2v6h1.27Z"/><path class="cls-8" d="M135.22,7.45h7.52l.42-1.18h-7.94Z"/><path class="cls-8" d="M139,7.86a2.76,2.76,0,0,0-1.92.68,2.23,2.23,0,0,0-.58.81,2.19,2.19,0,0,0-.17,1,2.37,2.37,0,0,0,.19,1,2.55,2.55,0,0,0,.58.87,2.47,2.47,0,0,0,.85.58,2.53,2.53,0,0,0,1,.19,2.72,2.72,0,0,0,1.93-.74,2.49,2.49,0,0,0,.79-1.86,2.39,2.39,0,0,0-.19-1,2.31,2.31,0,0,0-.58-.83A2.63,2.63,0,0,0,139,7.86Zm1,3.45a1.24,1.24,0,0,1-.46.29,1.39,1.39,0,0,1-.53.1,1.45,1.45,0,0,1-1-.38,1.08,1.08,0,0,1-.33-.43,1.32,1.32,0,0,1-.11-.53,1.39,1.39,0,0,1,.1-.53,1.22,1.22,0,0,1,.31-.44,1.13,1.13,0,0,1,.45-.29A1.32,1.32,0,0,1,139,9a1.34,1.34,0,0,1,1.31.82,1.3,1.3,0,0,1,.1.52,1.34,1.34,0,0,1-.1.52,1.28,1.28,0,0,1-.3.43Z"/><path class="cls-8" d="M52.59,1.84a2.7,2.7,0,0,0-2.5,1.63A2.74,2.74,0,0,0,49.93,5a2.71,2.71,0,0,0,.72,1.38,2.72,2.72,0,0,0,2.93.6,2.7,2.7,0,0,0,1.2-1,2.65,2.65,0,0,0,.46-1.49,2.66,2.66,0,0,0-2.65-2.68Zm0,4.08a1.39,1.39,0,0,1-.79-.22,1.42,1.42,0,0,1-.53-.63,1.43,1.43,0,0,1,.28-1.54,1.38,1.38,0,0,1,.72-.39,1.43,1.43,0,0,1,.82.07,1.48,1.48,0,0,1,.64.52,1.43,1.43,0,0,1,.24.78,1.42,1.42,0,0,1-.4,1,1.43,1.43,0,0,1-1,.42Z"/><path class="cls-8" d="M55.26,2.47H49.73V1.17h6Z"/><path class="cls-8" d="M53,1.7H51.85V.4h1.84Z"/><path class="cls-8" d="M64.65,6H63.36V9.08h1.29Z"/><path class="cls-8" d="M102.73,2.33h-5.3V1h5.71Z"/><path class="cls-8" d="M100.48,1.43H99.41V.26h1.72Z"/><path class="cls-8" d="M102.72,8.63H97.43V7.34h5.71Z"/><path class="cls-8" d="M100.74,5.49H99.48V8.57h1.26Z"/><path class="cls-8" d="M100.08,1.71a2.37,2.37,0,0,0-1.31.4,2.39,2.39,0,0,0-1,2.42,2.29,2.29,0,0,0,.65,1.2,2.37,2.37,0,0,0,1.2.65A2.43,2.43,0,0,0,101,6.25a2.37,2.37,0,0,0,1.46-2.18,2.3,2.3,0,0,0-.18-.9A2.32,2.32,0,0,0,101,1.89,2.3,2.3,0,0,0,100.08,1.71Zm0,3.44A1.12,1.12,0,0,1,99.47,5a1.07,1.07,0,0,1-.4-.49A1.13,1.13,0,0,1,99,3.84a1,1,0,0,1,.3-.56,1,1,0,0,1,.56-.3,1,1,0,0,1,.63.06,1.07,1.07,0,0,1,.49.4,1.1,1.1,0,0,1,.19.61,1,1,0,0,1-.09.42,1,1,0,0,1-.24.36,1,1,0,0,1-.35.23,1.06,1.06,0,0,1-.42.09Z"/><path class="cls-8" d="M118.53,7.72h-1.28v5.22h1.28Z"/><path class="cls-8" d="M124.75.62h-1.28v6h1.28Z"/><path class="cls-8" d="M123.77,2.2h-2.08V3.5h2.08Z"/><path class="cls-8" d="M119.37.49a2.86,2.86,0,0,0-2.66,1.74,2.92,2.92,0,0,0-.18,1.65,2.85,2.85,0,0,0,.78,1.47,2.8,2.8,0,0,0,1.46.79A2.83,2.83,0,0,0,120.42,6a2.86,2.86,0,0,0,1-4.65A2.84,2.84,0,0,0,119.37.49Zm0,4.41a1.7,1.7,0,0,1-.88-.25,1.58,1.58,0,0,1-.68-1.6,1.56,1.56,0,0,1,.42-.8,1.59,1.59,0,0,1,.8-.44,1.54,1.54,0,0,1,.9.09,1.52,1.52,0,0,1,.71.57,1.58,1.58,0,0,1,.26.87,1.54,1.54,0,0,1-1.53,1.54Z"/><path class="cls-8" d="M124.75,7.72h-1.28v5.22h1.28Z"/><path class="cls-8" d="M124.12,11.65h-6.6v1.29h6.6Z"/><path class="cls-8" d="M124.12,9h-6.6v1.16h6.6Z"/><path class="cls-8" d="M149.56,6.73h-5.08V5.58H150Z"/><path class="cls-8" d="M147.68,5.63H146.4V8.76h1.28Z"/><path class="cls-8" d="M152.18.92H150.9V8.84h1.28Z"/><path class="cls-8" d="M151.22,6.53h-2v1h2Z"/><path class="cls-8" d="M139,.93a2.58,2.58,0,0,0-1.38.4,2.47,2.47,0,0,0-1.09,2.53,2.56,2.56,0,0,0,.67,1.28,2.52,2.52,0,0,0,1.27.69,2.5,2.5,0,0,0,2.55-1,2.47,2.47,0,0,0,.41-1.37,2.35,2.35,0,0,0-.17-1,2.38,2.38,0,0,0-.53-.8,2.41,2.41,0,0,0-.79-.54A2.54,2.54,0,0,0,139,.93Zm0,3.66a1.22,1.22,0,0,1-.66-.2,1.15,1.15,0,0,1-.43-.52,1.13,1.13,0,0,1-.08-.68,1.21,1.21,0,0,1,.32-.6,1.23,1.23,0,0,1,.6-.33,1.21,1.21,0,0,1,.68.06,1.14,1.14,0,0,1,.53.44,1.14,1.14,0,0,1-.14,1.46,1.23,1.23,0,0,1-.81.34Z"/><path class="cls-8" d="M142.74,2.2h-7.52V1h8Z"/><path class="cls-8" d="M139.5,1.51l-1.31-.08V.26h2Z"/><path class="cls-8" d="M147,.48a2.69,2.69,0,0,0-1.87.8,2.64,2.64,0,0,0-.76,1.89,2.49,2.49,0,0,0,.16,1,2.63,2.63,0,0,0,.56.9,2.74,2.74,0,0,0,.87.61,2.71,2.71,0,0,0,2.09,0,2.74,2.74,0,0,0,.87-.61,2.63,2.63,0,0,0,.56-.9,2.49,2.49,0,0,0,.16-1,2.57,2.57,0,0,0-.19-1A2.63,2.63,0,0,0,148,.7,2.75,2.75,0,0,0,147,.48Zm0,4.22a1.45,1.45,0,0,1-.81-.24,1.4,1.4,0,0,1-.54-.64,1.52,1.52,0,0,1-.09-.84,1.57,1.57,0,0,1,.4-.75,1.49,1.49,0,0,1,.74-.4,1.51,1.51,0,0,1,.84.08,1.48,1.48,0,0,1,.65.54,1.45,1.45,0,0,1,.25.8,1.55,1.55,0,0,1-.11.56,1.6,1.6,0,0,1-.31.47,1.48,1.48,0,0,1-.47.31A1.46,1.46,0,0,1,146.93,4.7Z"/><path class="cls-8" d="M106.52,6.65h1.62l3.36-6h-1.62Z"/><path class="cls-8" d="M129.14.62h-.52l-2.83,6.05h1.5l1.59-3.17,1.6,3.17H132Z"/></g></g></svg>